<?xml version="1.0" encoding="UTF-8"?>
<!DOCTYPE score-partwise PUBLIC
  "-//Recordare//DTD MusicXML 3.1 Partwise//EN"
  "http://www.musicxml.org/dtds/partwise.dtd">
<score-partwise version="3.1">
  <work>
    <work-title>All About Me</work-title>
  </work>
  <identification>
    <creator type="composer">Generated by assistant</creator>
    <encoding>
      <software>Assistant MusicXML Generator</software>
      <encoding-date>2025-09-10</encoding-date>
    </encoding>
  </identification>

  <part-list>
    <score-part id="P1">
      <part-name>Voice</part-name>
      <score-instrument id="P1-I1"><instrument-name>Voice</instrument-name></score-instrument>
      <midi-instrument id="P1-I1"><midi-channel>1</midi-channel></midi-instrument>
    </score-part>

    <score-part id="P2">
      <part-name>Piano</part-name>
      <score-instrument id="P2-I1"><instrument-name>Piano</instrument-name></score-instrument>
      <midi-instrument id="P2-I1"><midi-channel>2</midi-channel></midi-instrument>
    </score-part>
  </part-list>

  <!-- VOICE PART -->
  <part id="P1">
    <!-- Measure 1: Attributes + tempo -->
    <measure number="1">
      <attributes>
        <divisions>8</divisions>
        <key><fifths>0</fifths></key>
        <time><beats>4</beats><beat-type>4</beat-type></time>
        <clef><sign>G</sign><line>2</line></clef>
        <staff-details>
          <staff-type>regular</staff-type>
        </staff-details>
      </attributes>

      <direction placement="above">
        <direction-type>
          <metronome>
            <beat-unit>quarter</beat-unit>
            <per-minute>150</per-minute>
          </metronome>
        </direction-type>
        <sound tempo="150"/>
      </direction>

      <!-- Verse 1: measures 1-8 (8 measures) -->
      <!-- Measure 1 -->
      <note>
        <pitch><step>C</step><octave>5</octave></pitch>
        <duration>8</duration>
        <type>quarter</type>
        <lyric><syllabic>single</syllabic><text>I'm</text></lyric>
      </note>
      <note>
        <pitch><step>E</step><octave>5</octave></pitch>
        <duration>8</duration>
        <type>quarter</type>
        <lyric><syllabic>single</syllabic><text>all</text></lyric>
      </note>
      <note>
        <pitch><step>G</step><octave>5</octave></pitch>
        <duration>8</duration>
        <type>quarter</type>
        <lyric><syllabic>single</syllabic><text>about</text></lyric>
      </note>
      <note>
        <pitch><step>C</step><octave>6</octave></pitch>
        <duration>8</duration>
        <type>quarter</type>
        <lyric><syllabic>single</syllabic><text>me</text></lyric>
      </note>
    </measure>

    <!-- Measure 2 -->
    <measure number="2">
      <note>
        <pitch><step>B</step><octave>5</octave></pitch>
        <duration>4</duration>
        <type>eighth</type>
        <lyric><syllabic>single</syllabic><text>It's</text></lyric>
      </note>
      <note>
        <pitch><step>B</step><octave>5</octave></pitch>
        <duration>4</duration>
        <type>eighth</type>
      </note>
      <note>
        <pitch><step>A</step><octave>5</octave></pitch>
        <duration>8</duration>
        <type>quarter</type>
        <lyric><syllabic>single</syllabic><text>my</text></lyric>
      </note>
      <note>
        <pitch><step>G</step><octave>5</octave></pitch>
        <duration>8</duration>
        <type>quarter</type>
        <lyric><syllabic>single</syllabic><text>world</text></lyric>
      </note>
    </measure>

    <!-- Measure 3 -->
    <measure number="3">
      <note><pitch><step>E</step><octave>5</octave></pitch><duration>8</duration><type>quarter</type>
        <lyric><syllabic>single</syllabic><text>Mirror</text></lyric></note>
      <note><pitch><step>F</step><octave>5</octave></pitch><duration>8</duration><type>quarter</type>
        <lyric><syllabic>single</syllabic><text>me</text></lyric></note>
      <note><pitch><step>G</step><octave>5</octave></pitch><duration>8</duration><type>quarter</type>
        <lyric><syllabic>single</syllabic><text>shine</text></lyric></note>
      <note><pitch><step>E</step><octave>5</octave></pitch><duration>8</duration><type>quarter</type>
        <lyric><syllabic>single</syllabic><text>bright</text></lyric></note>
    </measure>

    <!-- Measure 4 -->
    <measure number="4">
      <note><pitch><step>C</step><octave>5</octave></pitch><duration>4</duration><type>eighth</type>
        <lyric><syllabic>single</syllabic><text>I</text></lyric></note>
      <note><pitch><step>D</step><octave>5</octave></pitch><duration>4</duration><type>eighth</type></note>
      <note><pitch><step>E</step><octave>5</octave></pitch><duration>8</duration><type>quarter</type>
        <lyric><syllabic>single</syllabic><text>love</text></lyric></note>
      <note><pitch><step>G</step><octave>5</octave></pitch><duration>8</duration><type>quarter</type>
        <lyric><syllabic>single</syllabic><text>me</text></lyric></note>
    </measure>

    <!-- Measure 5 -->
    <measure number="5">
      <note><pitch><step>A</step><octave>5</octave></pitch><duration>8</duration><type>quarter</type>
        <lyric><syllabic>single</syllabic><text>Gold</text></lyric></note>
      <note><pitch><step>G</step><octave>5</octave></pitch><duration>8</duration><type>quarter</type>
        <lyric><syllabic>single</syllabic><text>shoes</text></lyric></note>
      <note><pitch><step>E</step><octave>5</octave></pitch><duration>8</duration><type>quarter</type>
        <lyric><syllabic>single</syllabic><text>and</text></lyric></note>
      <note><pitch><step>C</step><octave>6</octave></pitch><duration>8</duration><type>quarter</type>
        <lyric><syllabic>single</syllabic><text>me</text></lyric></note>
    </measure>

    <!-- Measure 6 -->
    <measure number="6">
      <note><pitch><step>B</step><octave>5</octave></pitch><duration>4</duration><type>eighth</type>
        <lyric><syllabic>single</syllabic><text>Flash</text></lyric></note>
      <note><pitch><step>A</step><octave>5</octave></pitch><duration>4</duration><type>eighth</type></note>
      <note><pitch><step>G</step><octave>5</octave></pitch><duration>8</duration><type>quarter</type>
        <lyric><syllabic>single</syllabic><text>smile</text></lyric></note>
      <note><pitch><step>E</step><octave>5</octave></pitch><duration>8</duration><type>quarter</type>
        <lyric><syllabic>single</syllabic><text>me</text></lyric></note>
    </measure>

    <!-- Measure 7 -->
    <measure number="7">
      <note><pitch><step>D</step><octave>5</octave></pitch><duration>8</duration><type>quarter</type>
        <lyric><syllabic>single</syllabic><text>Every</text></lyric></note>
      <note><pitch><step>E</step><octave>5</octave></pitch><duration>8</duration><type>quarter</type>
        <lyric><syllabic>single</syllabic><text>day</text></lyric></note>
      <note><pitch><step>F</step><octave>5</octave></pitch><duration>8</duration><type>quarter</type>
        <lyric><syllabic>single</syllabic><text>all</text></lyric></note>
      <note><pitch><step>G</step><octave>5</octave></pitch><duration>8</duration><type>quarter</type>
        <lyric><syllabic>single</syllabic><text>my</text></lyric></note>
    </measure>

    <!-- Measure 8 -->
    <measure number="8">
      <note><pitch><step>C</step><octave>6</octave></pitch><duration>16</duration><type>half</type>
        <lyric><syllabic>single</syllabic><text>song</text></lyric></note>
      <note><pitch><step>B</step><octave>5</octave></pitch><duration>16</duration><type>half</type>
        <notations><fermata type="short"/></notations>
      </note>
    </measure>

    <!-- Pre-chorus measures 9-12 (slight build) -->
    <measure number="9">
      <direction placement="above"><direction-type><words>Pre-Chorus</words></direction-type></direction>
      <note><pitch><step>C</step><octave>5</octave></pitch><duration>8</duration><type>quarter</type>
        <lyric><syllabic>begin</syllabic><text>I</text></lyric></note>
      <note><pitch><step>D</step><octave>5</octave></pitch><duration>8</duration><type>quarter</type>
        <lyric><syllabic>single</syllabic><text>want</text></lyric></note>
      <note><pitch><step>E</step><octave>5</octave></pitch><duration>4</duration><type>eighth</type>
        <lyric><syllabic>single</syllabic><text>it</text></lyric></note>
      <note><pitch><step>E</step><octave>5</octave></pitch><duration>4</duration><type>eighth</type></note>
      <note><pitch><step>G</step><octave>5</octave></pitch><duration>8</duration><type>quarter</type>
        <lyric><syllabic>single</syllabic><text>now</text></lyric></note>
    </measure>

    <measure number="10">
      <note><pitch><step>A</step><octave>5</octave></pitch><duration>8</duration><type>quarter</type>
        <lyric><syllabic>single</syllabic><text>No</text></lyric></note>
      <note><pitch><step>G</step><octave>5</octave></pitch><duration>8</duration><type>quarter</type>
        <lyric><syllabic>single</syllabic><text>sharing</text></lyric></note>
      <note><pitch><step>E</step><octave>5</octave></pitch><duration>8</duration><type>quarter</type>
        <lyric><syllabic>single</syllabic><text>please</text></lyric></note>
      <note><pitch><step>D</step><octave>5</octave></pitch><duration>8</duration><type>quarter</type>
        <lyric><syllabic>single</syllabic><text>with</text></lyric></note>
    </measure>

    <measure number="11">
      <note><pitch><step>C</step><octave>5</octave></pitch><duration>8</duration><type>quarter</type>
        <lyric><syllabic>single</syllabic><text>my</text></lyric></note>
      <note><pitch><step>E</step><octave>5</octave></pitch><duration>8</duration><type>quarter</type>
        <lyric><syllabic>single</syllabic><text>face</text></lyric></note>
      <note><pitch><step>F</step><octave>5</octave></pitch><duration>8</duration><type>quarter</type>
        <lyric><syllabic>single</syllabic><text>and</text></lyric></note>
      <note><pitch><step>G</step><octave>5</octave></pitch><duration>8</duration><type>quarter</type>
        <lyric><syllabic>single</syllabic><text>my</text></lyric></note>
    </measure>

    <measure number="12">
      <note><pitch><step>C</step><octave>6</octave></pitch><duration>16</duration><type>half</type>
        <lyric><syllabic>single</syllabic><text>crown</text></lyric></note>
      <note><rest/><duration>16</duration><type>half</type></note>
    </measure>

    <!-- Chorus measures 13-20 (tempo pushes a tiny bit) -->
    <measure number="13">
      <direction placement="above"><direction-type><words>Chorus</words></direction-type></direction>
      <direction placement="above"><direction-type><metronome><beat-unit>quarter</beat-unit><per-minute>160</per-minute></metronome></direction-type><sound tempo="160"/></direction>
      <note><pitch><step>C</step><octave>6</octave></pitch><duration>8</duration><type>quarter</type>
        <lyric><syllabic>single</syllabic><text>All</text></lyric></note>
      <note><pitch><step>B</step><octave>5</octave></pitch><duration>8</duration><type>quarter</type>
        <lyric><syllabic>single</syllabic><text>a-bout</text></lyric></note>
      <note><pitch><step>A</step><octave>5</octave></pitch><duration>8</duration><type>quarter</type>
        <lyric><syllabic>single</syllabic><text>me</text></lyric></note>
      <note><pitch><step>G</step><octave>5</octave></pitch><duration>8</duration><type>quarter</type>
        <lyric><syllabic>single</syllabic><text>—</text></lyric></note>
    </measure>

    <!-- Continue chorus through measure 20 -->
    <measure number="14">
      <note><pitch><step>E</step><octave>5</octave></pitch><duration>4</duration><type>eighth</type>
        <lyric><syllabic>single</syllabic><text>that's</text></lyric></note>
      <note><pitch><step>E</step><octave>5</octave></pitch><duration>4</duration><type>eighth</type></note>
      <note><pitch><step>G</step><octave>5</octave></pitch><duration>8</duration><type>quarter</type>
        <lyric><syllabic>single</syllabic><text>how</text></lyric></note>
      <note><pitch><step>C</step><octave>6</octave></pitch><duration>8</duration><type>quarter</type>
        <lyric><syllabic>single</syllabic><text>I</text></lyric></note>
    </measure>

    <measure number="15">
      <note><pitch><step>B</step><octave>5</octave></pitch><duration>8</duration><type>quarter</type>
        <lyric><syllabic>single</syllabic><text>roll</text></lyric></note>
      <note><pitch><step>A</step><octave>5</octave></pitch><duration>8</duration><type>quarter</type>
        <lyric><syllabic>single</syllabic><text>through</text></lyric></note>
      <note><pitch><step>G</step><octave>5</octave></pitch><duration>8</duration><type>quarter</type>
        <lyric><syllabic>single</syllabic><text>the</text></lyric></note>
      <note><pitch><step>E</step><octave>5</octave></pitch><duration>8</duration><type>quarter</type>
        <lyric><syllabic>single</syllabic><text>day</text></lyric></note>
    </measure>

    <measure number="16">
      <note><pitch><step>C</step><octave>6</octave></pitch><duration>8</duration><type>quarter</type>
        <lyric><syllabic>single</syllabic><text>Shine</text></lyric></note>
      <note><pitch><step>B</step><octave>5</octave></pitch><duration>8</duration><type>quarter</type>
        <lyric><syllabic>single</syllabic><text>bright</text></lyric></note>
      <note><pitch><step>A</step><octave>5</octave></pitch><duration>8</duration><type>quarter</type>
        <lyric><syllabic>single</syllabic><text>and</text></lyric></note>
      <note><pitch><step>G</step><octave>5</octave></pitch><duration>8</duration><type>quarter</type>
        <lyric><syllabic>single</syllabic><text>say</text></lyric></note>
    </measure>

    <measure number="17">
      <note><pitch><step>E</step><octave>5</octave></pitch><duration>4</duration><type>eighth</type>
        <lyric><syllabic>single</syllabic><text>my</text></lyric></note>
      <note><pitch><step>D</step><octave>5</octave></pitch><duration>4</duration><type>eighth</type></note>
      <note><pitch><step>C</step><octave>5</octave></pitch><duration>8</duration><type>quarter</type>
        <lyric><syllabic>single</syllabic><text>name</text></lyric></note>
      <note><pitch><step>B</step><octave>4</octave></pitch><duration>8</duration><type>quarter</type>
        <lyric><syllabic>single</syllabic><text>loud</text></lyric></note>
    </measure>

    <measure number="18">
      <note><pitch><step>C</step><octave>6</octave></pitch><duration>16</duration><type>half</type>
        <lyric><syllabic>single</syllabic><text>—All</text></lyric></note>
      <note><pitch><step>G</step><octave>5</octave></pitch><duration>16</duration><type>half</type></note>
    </measure>

    <measure number="19">
      <note><pitch><step>C</step><octave>6</octave></pitch><duration>8</duration><type>quarter</type>
        <lyric><syllabic>single</syllabic><text>A</text></lyric></note>
      <note><pitch><step>B</step><octave>5</octave></pitch><duration>8</duration><type>quarter</type>
        <lyric><syllabic>single</syllabic><text>bout</text></lyric></note>
      <note><pitch><step>A</step><octave>5</octave></pitch><duration>8</duration><type>quarter</type>
        <lyric><syllabic>single</syllabic><text>me</text></lyric></note>
      <note><rest/><duration>8</duration><type>quarter</type></note>
    </measure>

    <measure number="20">
      <note><pitch><step>G</step><octave>5</octave></pitch><duration>16</duration><type>half</type>
        <notations><fermata type="short"/></notations>
      </note>
      <note><rest/><duration>16</duration><type>half</type></note>
    </measure>

    <!-- Verse 2 measures 21-28 (similar, a bit playful) -->
    <measure number="21">
      <direction placement="above"><direction-type><words>Verse 2</words></direction-type></direction>
      <note><pitch><step>C</step><octave>5</octave></pitch><duration>8</duration><type>quarter</type>
        <lyric><syllabic>single</syllabic><text>My</text></lyric></note>
      <note><pitch><step>E</step><octave>5</octave></pitch><duration>8</duration><type>quarter</type>
        <lyric><syllabic>single</syllabic><text>hair</text></lyric></note>
      <note><pitch><step>G</step><octave>5</octave></pitch><duration>8</duration><type>quarter</type>
        <lyric><syllabic>single</syllabic><text>is</text></lyric></note>
      <note><pitch><step>C</step><octave>6</octave></pitch><duration>8</duration><type>quarter</type>
        <lyric><syllabic>single</syllabic><text>fame</text></lyric></note>
    </measure>

    <measure number="22">
      <note><pitch><step>B</step><octave>5</octave></pitch><duration>8</duration><type>quarter</type>
        <lyric><syllabic>single</syllabic><text>My</text></lyric></note>
      <note><pitch><step>A</step><octave>5</octave></pitch><duration>8</duration><type>quarter</type>
        <lyric><syllabic>single</syllabic><text>self</text></lyric></note>
      <note><pitch><step>G</step><octave>5</octave></pitch><duration>8</duration><type>quarter</type>
        <lyric><syllabic>single</syllabic><text>is</text></lyric></note>
      <note><pitch><step>E</step><octave>5</octave></pitch><duration>8</duration><type>quarter</type>
        <lyric><syllabic>single</syllabic><text>fine</text></lyric></note>
    </measure>

    <measure number="23">
      <note><pitch><step>D</step><octave>5</octave></pitch><duration>8</duration><type>quarter</type>
        <lyric><syllabic>single</syllabic><text>Snap</text></lyric></note>
      <note><pitch><step>E</step><octave>5</octave></pitch><duration>8</duration><type>quarter</type>
        <lyric><syllabic>single</syllabic><text>and</text></lyric></note>
      <note><pitch><step>F</step><octave>5</octave></pitch><duration>8</duration><type>quarter</type>
        <lyric><syllabic>single</syllabic><text>pose</text></lyric></note>
      <note><pitch><step>G</step><octave>5</octave></pitch><duration>8</duration><type>quarter</type>
        <lyric><syllabic>single</syllabic><text>for</text></lyric></note>
    </measure>

    <measure number="24">
      <note><pitch><step>C</step><octave>6</octave></pitch><duration>16</duration><type>half</type>
        <lyric><syllabic>single</syllabic><text>me</text></lyric></note>
      <note><rest/><duration>16</duration><type>half</type></note>
    </measure>

    <measure number="25">
      <note><pitch><step>B</step><octave>5</octave></pitch><duration>8</duration><type>quarter</type>
        <lyric><syllabic>single</syllabic><text>Try</text></lyric></note>
      <note><pitch><step>A</step><octave>5</octave></pitch><duration>8</duration><type>quarter</type>
        <lyric><syllabic>single</syllabic><text>to</text></lyric></note>
      <note><pitch><step>G</step><octave>5</octave></pitch><duration>8</duration><type>quarter</type>
        <lyric><syllabic>single</syllabic><text>copy</text></lyric></note>
      <note><pitch><step>E</step><octave>5</octave></pitch><duration>8</duration><type>quarter</type>
        <lyric><syllabic>single</syllabic><text>me</text></lyric></note>
    </measure>

    <measure number="26">
      <note><pitch><step>C</step><octave>6</octave></pitch><duration>8</duration><type>quarter</type>
        <lyric><syllabic>single</syllabic><text>Good</text></lyric></note>
      <note><pitch><step>B</step><octave>5</octave></pitch><duration>8</duration><type>quarter</type>
        <lyric><syllabic>single</syllabic><text>luck</text></lyric></note>
      <note><pitch><step>A</step><octave>5</octave></pitch><duration>8</duration><type>quarter</type>
        <lyric><syllabic>single</syllabic><text>with</text></lyric></note>
      <note><rest/><duration>8</duration><type>quarter</type></note>
    </measure>

    <measure number="27">
      <note><pitch><step>G</step><octave>5</octave></pitch><duration>16</duration><type>half</type>
        <lyric><syllabic>single</syllabic><text>him</text></lyric></note>
      <note><rest/><duration>16</duration><type>half</type></note>
    </measure>

    <measure number="28">
      <note><pitch><step>C</step><octave>6</octave></pitch><duration>16</duration><type>half</type>
        <notations><fermata type="short"/></notations>
      </note>
      <note><rest/><duration>16</duration><type>half</type></note>
    </measure>

    <!-- Pre-chorus 2 measures 29-30 -->
    <measure number="29">
      <note><pitch><step>C</step><octave>5</octave></pitch><duration>8</duration><type>quarter</type>
        <lyric><syllabic>single</syllabic><text>Give</text></lyric></note>
      <note><pitch><step>D</step><octave>5</octave></pitch><duration>8</duration><type>quarter</type>
        <lyric><syllabic>single</syllabic><text>me</text></lyric></note>
      <note><pitch><step>E</step><octave>5</octave></pitch><duration>16</duration><type>half</type>
        <lyric><syllabic>single</syllabic><text>all</text></lyric></note>
      <note><rest/><duration>16</duration><type>half</type></note>
    </measure>

    <measure number="30">
      <note><pitch><step>C</step><octave>6</octave></pitch><duration>16</duration><type>half</type>
        <lyric><syllabic>single</syllabic><text>you</text></lyric></note>
      <note><rest/><duration>16</duration><type>half</type></note>
    </measure>

    <!-- Chorus repeat measures 31-38 -->
    <measure number="31">
      <direction placement="above"><direction-type><words>Chorus (repeat)</words></direction-type></direction>
      <note><pitch><step>C</step><octave>6</octave></pitch><duration>8</duration><type>quarter</type>
        <lyric><syllabic>single</syllabic><text>All</text></lyric></note>
      <note><pitch><step>B</step><octave>5</octave></pitch><duration>8</duration><type>quarter</type>
        <lyric><syllabic>single</syllabic><text>a-bout</text></lyric></note>
      <note><pitch><step>A</step><octave>5</octave></pitch><duration>8</duration><type>quarter</type>
        <lyric><syllabic>single</syllabic><text>me</text></lyric></note>
      <note><pitch><step>G</step><octave>5</octave></pitch><duration>8</duration><type>quarter</type>
        <lyric><syllabic>single</syllabic><text>—</text></lyric></note>
    </measure>

    <measure number="32">
      <note><pitch><step>E</step><octave>5</octave></pitch><duration>4</duration><type>eighth</type>
        <lyric><syllabic>single</syllabic><text>It's</text></lyric></note>
      <note><pitch><step>E</step><octave>5</octave></pitch><duration>4</duration><type>eighth</type></note>
      <note><pitch><step>G</step><octave>5</octave></pitch><duration>8</duration><type>quarter</type>
        <lyric><syllabic>single</syllabic><text>my</text></lyric></note>
      <note><pitch><step>C</step><octave>6</octave></pitch><duration>8</duration><type>quarter</type>
        <lyric><syllabic>single</syllabic><text>thing</text></lyric></note>
    </measure>

    <measure number="33">
      <note><pitch><step>B</step><octave>5</octave></pitch><duration>8</duration><type>quarter</type>
        <lyric><syllabic>single</syllabic><text>Shine</text></lyric></note>
      <note><pitch><step>A</step><octave>5</octave></pitch><duration>8</duration><type>quarter</type>
        <lyric><syllabic>single</syllabic><text>on</text></lyric></note>
      <note><pitch><step>G</step><octave>5</octave></pitch><duration>8</duration><type>quarter</type>
        <lyric><syllabic>single</syllabic><text>me</text></lyric></note>
      <note><rest/><duration>8</duration><type>quarter</type></note>
    </measure>

    <measure number="34">
      <note><pitch><step>C</step><octave>6</octave></pitch><duration>16</duration><type>half</type>
        <notations><fermata type="short"/></notations>
      </note>
      <note><rest/><duration>16</duration><type>half</type></note>
    </measure>

    <!-- Bridge measures 35-42 (slow down to 120 for contrast) -->
    <measure number="35">
      <direction placement="above"><direction-type><words>Bridge</words></direction-type></direction>
      <direction placement="above"><direction-type><metronome><beat-unit>quarter</beat-unit><per-minute>120</per-minute></metronome></direction-type><sound tempo="120"/></direction>
      <note><pitch><step>A</step><octave>5</octave></pitch><duration>16</duration><type>half</type>
        <lyric><syllabic>single</syllabic><text>Maybe</text></lyric></note>
      <note><pitch><step>G</step><octave>5</octave></pitch><duration>16</duration><type>half</type>
        <lyric><syllabic>single</syllabic><text>not</text></lyric></note>
    </measure>

    <measure number="36">
      <note><pitch><step>F</step><octave>5</octave></pitch><duration>16</duration><type>half</type>
        <lyric><syllabic>single</syllabic><text>all</text></lyric></note>
      <note><pitch><step>E</step><octave>5</octave></pitch><duration>16</duration><type>half</type>
        <lyric><syllabic>single</syllabic><text>that</text></lyric></note>
    </measure>

    <measure number="37">
      <note><pitch><step>D</step><octave>5</octave></pitch><duration>16</duration><type>half</type>
        <lyric><syllabic>single</syllabic><text>But</text></lyric></note>
      <note><pitch><step>C</step><octave>5</octave></pitch><duration>16</duration><type>half</type>
        <lyric><syllabic>single</syllabic><text>close</text></lyric></note>
    </measure>

    <measure number="38">
      <note><pitch><step>B</step><octave>4</octave></pitch><duration>16</duration><type>half</type>
        <lyric><syllabic>single</syllabic><text>enough</text></lyric></note>
      <note><rest/><duration>16</duration><type>half</type></note>
    </measure>

    <measure number="39">
      <note><pitch><step>C</step><octave>5</octave></pitch><duration>8</duration><type>quarter</type>
        <lyric><syllabic>single</syllabic><text>I</text></lyric></note>
      <note><pitch><step>E</step><octave>5</octave></pitch><duration>8</duration><type>quarter</type>
        <lyric><syllabic>single</syllabic><text>like</text></lyric></note>
      <note><pitch><step>G</step><octave>5</octave></pitch><duration>8</duration><type>quarter</type>
        <lyric><syllabic>single</syllabic><text>me</text></lyric></note>
      <note><rest/><duration>8</duration><type>quarter</type></note>
    </measure>

    <measure number="40">
      <note><pitch><step>C</step><octave>6</octave></pitch><duration>16</duration><type>half</type>
        <notations><fermata type="short"/></notations>
      </note>
      <note><rest/><duration>16</duration><type>half</type></note>
    </measure>

    <!-- Final chorus measures 41-48 (back to 150, big finish) -->
    <measure number="41">
      <direction placement="above"><direction-type><metronome><beat-unit>quarter</beat-unit><per-minute>150</per-minute></metronome></direction-type><sound tempo="150"/></direction>
      <note><pitch><step>C</step><octave>6</octave></pitch><duration>8</duration><type>quarter</type>
        <lyric><syllabic>single</syllabic><text>All</text></lyric></note>
      <note><pitch><step>B</step><octave>5</octave></pitch><duration>8</duration><type>quarter</type>
        <lyric><syllabic>single</syllabic><text>a-bout</text></lyric></note>
      <note><pitch><step>A</step><octave>5</octave></pitch><duration>8</duration><type>quarter</type>
        <lyric><syllabic>single</syllabic><text>me</text></lyric></note>
      <note><pitch><step>G</step><octave>5</octave></pitch><duration>8</duration><type>quarter</type>
        <lyric><syllabic>single</syllabic><text>!</text></lyric></note>
    </measure>

    <measure number="42">
      <note><pitch><step>E</step><octave>5</octave></pitch><duration>4</duration><type>eighth</type>
        <lyric><syllabic>single</syllabic><text>All</text></lyric></note>
      <note><pitch><step>E</step><octave>5</octave></pitch><duration>4</duration><type>eighth</type></note>
      <note><pitch><step>G</step><octave>5</octave></pitch><duration>8</duration><type>quarter</type>
        <lyric><syllabic>single</syllabic><text>a-bout</text></lyric></note>
      <note><pitch><step>C</step><octave>6</octave></pitch><duration>8</duration><type>quarter</type>
        <lyric><syllabic>single</syllabic><text>me</text></lyric></note>
    </measure>

    <measure number="43">
      <note><pitch><step>B</step><octave>5</octave></pitch><duration>8</duration><type>quarter</type>
        <lyric><syllabic>single</syllabic><text>All</text></lyric></note>
      <note><pitch><step>A</step><octave>5</octave></pitch><duration>8</duration><type>quarter</type>
        <lyric><syllabic>single</syllabic><text>a-bout</text></lyric></note>
      <note><pitch><step>G</step><octave>5</octave></pitch><duration>8</duration><type>quarter</type>
        <lyric><syllabic>single</syllabic><text>me</text></lyric></note>
      <note><rest/><duration>8</duration><type>quarter</type></note>
    </measure>

    <measure number="44">
      <note><pitch><step>C</step><octave>6</octave></pitch><duration>16</duration><type>half</type>
        <notations><fermata type="short"/></notations>
      </note>
      <note><rest/><duration>16</duration><type>half</type></note>
    </measure>

    <!-- Final little tag measures 45-48 -->
    <measure number="45">
      <note><pitch><step>G</step><octave>5</octave></pitch><duration>8</duration><type>quarter</type>
        <lyric><syllabic>single</syllabic><text>It's</text></lyric></note>
      <note><pitch><step>E</step><octave>5</octave></pitch><duration>8</duration><type>quarter</type>
        <lyric><syllabic>single</syllabic><text>all</text></lyric></note>
      <note><pitch><step>C</step><octave>6</octave></pitch><duration>8</duration><type>quarter</type>
        <lyric><syllabic>single</syllabic><text>for</text></lyric></note>
      <note><pitch><step>C</step><octave>6</octave></pitch><duration>8</duration><type>quarter</type>
        <lyric><syllabic>single</syllabic><text>me</text></lyric></note>
    </measure>

    <measure number="46">
      <note><pitch><step>E</step><octave>5</octave></pitch><duration>8</duration><type>quarter</type>
        <notations><tied type="start"/></notations>
        <lyric><syllabic>single</syllabic><text>All</text></lyric></note>
      <note><pitch><step>G</step><octave>5</octave></pitch><duration>8</duration><type>quarter</type>
        <notations><tied type="stop"/></notations>
        <lyric><syllabic>single</syllabic><text>my</text></lyric></note>
      <note><rest/><duration>16</duration><type>half</type></note>
    </measure>

    <measure number="47">
      <note><pitch><step>C</step><octave>6</octave></pitch><duration>16</duration><type>half</type>
        <notations><fermata type="short"/></notations>
      </note>
      <note><rest/><duration>16</duration><type>half</type></note>
    </measure>

    <measure number="48">
      <direction placement="below"><direction-type><words>End</words></direction-type></direction>
      <note><rest/><duration>32</duration><type>whole</type></note>
    </measure>
  </part>

  <!-- PIANO PART (two staves merged into single part with staff 1 = RH, staff 2 = LH) -->
  <part id="P2">
    <measure number="1">
      <attributes>
        <divisions>8</divisions>
        <key><fifths>0</fifths></key>
        <time><beats>4</beats><beat-type>4</beat-type></time>
        <clef number="1"><sign>G</sign><line>2</line></clef>
        <clef number="2"><sign>F</sign><line>4</line></clef>
      </attributes>

      <!-- Piano intro chord (RH) and bass (LH) -->
      <note>
        <pitch><step>C</step><octave>5</octave></pitch>
        <duration>16</duration>
        <type>half</type>
        <staff>1</staff>
      </note>
      <note>
        <pitch><step>C</step><octave>3</octave></pitch>
        <duration>16</duration>
        <type>half</type>
        <staff>2</staff>
      </note>
      <note>
        <chord/>
        <pitch><step>E</step><octave>5</octave></pitch>
        <duration>16</duration>
        <type>half</type>
        <staff>1</staff>
      </note>
      <note>
        <chord/>
        <pitch><step>G</step><octave>5</octave></pitch>
        <duration>16</duration>
        <type>half</type>
        <staff>1</staff>
      </note>
    </measure>

    <!-- For brevity and playability, piano follows a repeated-pop pattern.
         Each piano measure aligns with voice measures above.
         Chord labels added for clarity. -->

    <!-- Measure 2 -->
    <measure number="2">
      <direction placement="above"><direction-type><words>Chords: C - Am - F - G</words></direction-type></direction>
      <note><pitch><step>A</step><octave>4</octave></pitch><duration>8</duration><type>quarter</type><staff>1</staff></note>
      <note><pitch><step>C</step><octave>4</octave></pitch><duration>8</duration><type>quarter</type><staff>2</staff></note>
      <note><pitch><step>F</step><octave>4</octave></pitch><duration>8</duration><type>quarter</type><staff>1</staff></note>
      <note><pitch><step>G</step><octave>4</octave></pitch><duration>8</duration><type>quarter</type><staff>2</staff></note>
    </measure>

    <!-- Measure 3 -->
    <measure number="3">
      <note><pitch><step>E</step><octave>5</octave></pitch><duration>8</duration><type>quarter</type><staff>1</staff></note>
      <note><pitch><step>F</step><octave>4</octave></pitch><duration>8</duration><type>quarter</type><staff>2</staff></note>
      <note><pitch><step>G</step><octave>5</octave></pitch><duration>8</duration><type>quarter</type><staff>1</staff></note>
      <note><pitch><step>E</step><octave>4</octave></pitch><duration>8</duration><type>quarter</type><staff>2</staff></note>
    </measure>

    <!-- Measure 4 -->
    <measure number="4">
      <note><pitch><step>C</step><octave>5</octave></pitch><duration>8</duration><type>quarter</type><staff>1</staff></note>
      <note><pitch><step>D</step><octave>4</octave></pitch><duration>8</duration><type>quarter</type><staff>2</staff></note>
      <note><pitch><step>E</step><octave>5</octave></pitch><duration>8</duration><type>quarter</type><staff>1</staff></note>
      <note><pitch><step>G</step><octave>4</octave></pitch><duration>8</duration><type>quarter</type><staff>2</staff></note>
    </measure>

    <!-- Measures 5-48: repeat the pop-block piano accompaniment with simple RH chord hits and LH roots.
         To keep the MusicXML file readable, the pattern is provided and each measure above lines up
         with the vocal measures. Notating every single chord in full is possible but verbose;
         modern notation programs will play chord symbols and block chords as entered here. -->

    <!-- To ensure the piano plays across all vocal measures, include a series of whole-note chord placeholders. -->
    <!-- Measure 5 -->
    <measure number="5">
      <note><pitch><step>A</step><octave>4</octave></pitch><duration>32</duration><type>whole</type><staff>1</staff></note>
      <note><pitch><step>A</step><octave>3</octave></pitch><duration>32</duration><type>whole</type><staff>2</staff></note>
    </measure>

    <!-- Measure 6 -->
    <measure number="6">
      <note><pitch><step>B</step><octave>4</octave></pitch><duration>32</duration><type>whole</type><staff>1</staff></note>
      <note><pitch><step>B</step><octave>3</octave></pitch><duration>32</duration><type>whole</type><staff>2</staff></note>
    </measure>

    <!-- Measure 7 -->
    <measure number="7">
      <note><pitch><step>D</step><octave>5</octave></pitch><duration>32</duration><type>whole</type><staff>1</staff></note>
      <note><pitch><step>D</step><octave>3</octave></pitch><duration>32</duration><type>whole</type><staff>2</staff></note>
    </measure>

    <!-- Measure 8 -->
    <measure number="8">
      <note><pitch><step>C</step><octave>6</octave></pitch><duration>32</duration><type>whole</type><staff>1</staff></note>
      <note><pitch><step>C</step><octave>3</octave></pitch><duration>32</duration><type>whole</type><staff>2</staff></note>
    </measure>

    <!-- Continuing main repeated accompaniment placeholders up to measure 48-->
    <!-- Measure 9 -->
    <measure number="9"><note><pitch><step>C</step><octave>5</octave></pitch><duration>32</duration><type>whole</type><staff>1</staff></measure>
    <!-- Measure 10 -->
    <measure number="10"><note><pitch><step>A</step><octave>4</octave></pitch><duration>32</duration><type>whole</type><staff>1</staff></measure>
    <!-- Measure 11 -->
    <measure number="11"><note><pitch><step>F</step><octave>4</octave></pitch><duration>32</duration><type>whole</type><staff>1</staff></measure>
    <!-- Measure 12 -->
    <measure number="12"><note><pitch><step>G</step><octave>4</octave></pitch><duration>32</duration><type>whole</type><staff>1</staff></measure>

    <!-- Measures 13-48: copy the whole-note chord placeholders aligning with choruses, bridge, final chorus -->
    <measure number="13"><note><pitch><step>C</step><octave>5</octave></pitch><duration>32</duration><type>whole</type><staff>1</staff></measure>
    <measure number="14"><note><pitch><step>E</step><octave>5</octave></pitch><duration>32</duration><type>whole</type><staff>1</staff></measure>
    <measure number="15"><note><pitch><step>B</step><octave>4</octave></pitch><duration>32</duration><type>whole</type><staff>1</staff></measure>
    <measure number="16"><note><pitch><step>C</step><octave>6</octave></pitch><duration>32</duration><type>whole</type><staff>1</staff></measure>

    <measure number="17"><note><pitch><step>E</step><octave>5</octave></pitch><duration>32</duration><type>whole</type><staff>1</staff></measure>
    <measure number="18"><note><pitch><step>C</step><octave>6</octave></pitch><duration>32</duration><type>whole</type><staff>1</staff></measure>
    <measure number="19"><note><pitch><step>C</step><octave>6</octave></pitch><duration>32</duration><type>whole</type><staff>1</staff></measure>
    <measure number="20"><note><rest/><duration>32</duration><type>whole</type><staff>1</staff></measure>

    <measure number="21"><note><pitch><step>C</step><octave>5</octave></pitch><duration>32</duration><type>whole</type><staff>1</staff></measure>
    <measure number="22"><note><pitch><step>B</step><octave>4</octave></pitch><duration>32</duration><type>whole</type><staff>1</staff></measure>
    <measure number="23"><note><pitch><step>D</step><octave>5</octave></pitch><duration>32</duration><type>whole</type><staff>1</staff></measure>
    <measure number="24"><note><rest/><duration>32</duration><type>whole</type><staff>1</staff></measure>

    <measure number="25"><note><pitch><step>B</step><octave>4</octave></pitch><duration>32</duration><type>whole</type><staff>1</staff></measure>
    <measure number="26"><note><pitch><step>C</step><octave>6</octave></pitch><duration>32</duration><type>whole</type><staff>1</staff></measure>
    <measure number="27"><note><pitch><step>G</step><octave>4</octave></pitch><duration>32</duration><type>whole</type><staff>1</staff></measure>
    <measure number="28"><note><rest/><duration>32</duration><type>whole</type><staff>1</staff></measure>

    <measure number="29"><note><pitch><step>C</step><octave>5</octave></pitch><duration>32</duration><type>whole</type><staff>1</staff></measure>
    <measure number="30"><note><rest/><duration>32</duration><type>whole</type><staff>1</staff></measure>
    <measure number="31"><note><pitch><step>C</step><octave>6</octave></pitch><duration>32</duration><type>whole</type><staff>1</staff></measure>
    <measure number="32"><note><pitch><step>E</step><octave>5</octave></pitch><duration>32</duration><type>whole</type><staff>1</staff></measure>

    <measure number="33"><note><pitch><step>B</step><octave>4</octave></pitch><duration>32</duration><type>whole</type><staff>1</staff></measure>
    <measure number="34"><note><rest/><duration>32</duration><type>whole</type><staff>1</staff></measure>

    <measure number="35"><note><pitch><step>A</step><octave>4</octave></pitch><duration>32</duration><type>whole</type><staff>1</staff></measure>
    <measure number="36"><note><pitch><step>F</step><octave>4</octave></pitch><duration>32</duration><type>whole</type><staff>1</staff></measure>
    <measure number="37"><note><pitch><step>D</step><octave>4</octave></pitch><duration>32</duration><type>whole</type><staff>1</staff></measure>
    <measure number="38"><note><rest/><duration>32</duration><type>whole</type><staff>1</staff></measure>

    <measure number="39"><note><pitch><step>C</step><octave>5</octave></pitch><duration>32</duration><type>whole</type><staff>1</staff></measure>
    <measure number="40"><note><rest/><duration>32</duration><type>whole</type><staff>1</staff></measure>

    <measure number="41"><note><pitch><step>C</step><octave>6</octave></pitch><duration>32</duration><type>whole</type><staff>1</staff></measure>
    <measure number="42"><note><pitch><step>E</step><octave>5</octave></pitch><duration>32</duration><type>whole</type><staff>1</staff></measure>
    <measure number="43"><note><pitch><step>B</step><octave>4</octave></pitch><duration>32</duration><type>whole</type><staff>1</staff></measure>
    <measure number="44"><note><rest/><duration>32</duration><type>whole</type><staff>1</staff></measure>

    <measure number="45"><note><pitch><step>G</step><octave>4</octave></pitch><duration>32</duration><type>whole</type><staff>1</staff></measure>
    <measure number="46"><note><pitch><step>E</step><octave>4</octave></pitch><duration>32</duration><type>whole</type><staff>1</staff></measure>
    <measure number="47"><note><pitch><step>C</step><octave>5</octave></pitch><duration>32</duration><type>whole</type><staff>1</staff></measure>
    <measure number="48"><note><rest/><duration>32</duration><type>whole</type><staff>1</staff></measure>

    <!-- End of piano part -->
  </part>
</score-partwise>
