<?xml version="1.0" encoding="UTF-8"?>
<!DOCTYPE score-partwise PUBLIC
  "-//Recordare//DTD MusicXML 3.1 Partwise//EN"
  "http://www.musicxml.org/dtds/partwise.dtd">
<score-partwise version="3.1">
  <work>
    <work-title>Goofy Clarinet Jig</work-title>
  </work>
  <identification>
    <creator type="composer">Generated by assistant</creator>
  </identification>

  <part-list>
    <score-part id="P1">
      <part-name>Clarinet</part-name>
      <score-instrument id="P1-I1">
        <instrument-name>Clarinet</instrument-name>
      </score-instrument>
      <midi-instrument id="P1-I1">
        <midi-channel>1</midi-channel>
      </midi-instrument>
    </score-part>
  </part-list>

  <part id="P1">
    <!-- Measure 1: attributes + tempo -->
    <measure number="1">
      <attributes>
        <divisions>8</divisions>             <!-- 8 divisions per quarter -->
        <key>
          <fifths>0</fifths>                  <!-- C major -->
        </key>
        <time>
          <beats>4</beats>
          <beat-type>4</beat-type>
        </time>
        <clef>
          <sign>G</sign>
          <line>2</line>
        </clef>
      </attributes>

      <!-- Tempo marking: quarter = 140 -->
      <direction placement="above">
        <direction-type>
          <metronome>
            <beat-unit>quarter</beat-unit>
            <per-minute>140</per-minute>
          </metronome>
        </direction-type>
        <sound tempo="140"/>
      </direction>

      <!-- Measure 1: C5 E5 G5 C6 (quarters) -->
      <note>
        <pitch><step>C</step><octave>5</octave></pitch>
        <duration>8</duration>
        <type>quarter</type>
        <notations>
          <articulations><staccato/></articulations>
        </notations>
      </note>
      <note>
        <pitch><step>E</step><octave>5</octave></pitch>
        <duration>8</duration>
        <type>quarter</type>
      </note>
      <note>
        <pitch><step>G</step><octave>5</octave></pitch>
        <duration>8</duration>
        <type>quarter</type>
        <notations>
          <articulations><accent/></articulations>
        </notations>
      </note>
      <note>
        <pitch><step>C</step><octave>6</octave></pitch>
        <duration>8</duration>
        <type>quarter</type>
      </note>
    </measure>

    <!-- Measure 2: syncopated / goofy -->
    <measure number="2">
      <note>
        <pitch><step>A</step><octave>5</octave></pitch>
        <duration>4</duration>
        <type>eighth</type>
        <notations><articulations><staccato/></articulations></notations>
      </note>
      <note>
        <rest/>
        <duration>4</duration>
        <type>eighth</type>
      </note>
      <note>
        <pitch><step>A</step><octave>5</octave></pitch>
        <duration>4</duration>
        <type>eighth</type>
        <notations><articulations><accent/></articulations></notations>
      </note>
      <note>
        <pitch><step>G</step><octave>5</octave></pitch>
        <duration>4</duration>
        <type>eighth</type>
      </note>
      <note>
        <pitch><step>F</step><octave>5</octave></pitch>
        <duration>8</duration>
        <type>quarter</type>
      </note>
      <note>
        <pitch><step>E</step><octave>5</octave></pitch>
        <duration>8</duration>
        <type>quarter</type>
      </note>
    </measure>

    <!-- Measure 3 -->
    <measure number="3">
      <note>
        <pitch><step>D</step><octave>5</octave></pitch>
        <duration>8</duration>
        <type>quarter</type>
      </note>
      <note>
        <rest/>
        <duration>4</duration>
        <type>eighth</type>
      </note>
      <note>
        <pitch><step>D</step><octave>5</octave></pitch>
        <duration>4</duration>
        <type>eighth</type>
        <notations><articulations><staccato/></articulations></notations>
      </note>
      <note>
        <pitch><step>E</step><octave>5</octave></pitch>
        <duration>8</duration>
        <type>quarter</type>
      </note>
      <note>
        <pitch><step>C</step><octave>5</octave></pitch>
        <duration>8</duration>
        <type>quarter</type>
      </note>
    </measure>

    <!-- Measure 4: goofy arpeggio -->
    <measure number="4">
      <note>
        <pitch><step>G</step><octave>4</octave></pitch>
        <duration>16</duration>
        <type>half</type>
      </note>
      <note>
        <pitch><step>C</step><octave>5</octave></pitch>
        <duration>8</duration>
        <type>quarter</type>
        <notations><articulations><accent/></articulations></notations>
      </note>
      <note>
        <pitch><step>G</step><octave>4</octave></pitch>
        <duration>8</duration>
        <type>quarter</type>
        <notations><articulations><staccato/></articulations></notations>
      </note>
    </measure>

    <!-- Measure 5: little descending stumble -->
    <measure number="5">
      <note>
        <pitch><step>E</step><octave>5</octave></pitch>
        <duration>4</duration>
        <type>eighth</type>
      </note>
      <note>
        <pitch><step>D</step><octave>5</octave></pitch>
        <duration>4</duration>
        <type>eighth</type>
      </note>
      <note>
        <pitch><step>C</step><octave>5</octave></pitch>
        <duration>8</duration>
        <type>quarter</type>
      </note>
      <note>
        <pitch><step>B</step><octave>4</octave></pitch>
        <duration>8</duration>
        <type>quarter</type>
      </note>
      <note>
        <pitch><step>C</step><octave>5</octave></pitch>
        <duration>8</duration>
        <type>quarter</type>
      </note>
    </measure>

    <!-- Measure 6: quick bounce -->
    <measure number="6">
      <note>
        <pitch><step>G</step><octave>5</octave></pitch>
        <duration>4</duration>
        <type>eighth</type>
      </note>
      <note>
        <pitch><step>G</step><octave>5</octave></pitch>
        <duration>4</duration>
        <type>eighth</type>
        <notations><articulations><staccato/></articulations></notations>
      </note>
      <note>
        <pitch><step>A</step><octave>5</octave></pitch>
        <duration>8</duration>
        <type>quarter</type>
      </note>
      <note>
        <pitch><step>F</step><octave>5</octave></pitch>
        <duration>8</duration>
        <type>quarter</type>
      </note>
      <note>
        <pitch><step>E</step><octave>5</octave></pitch>
        <duration>8</duration>
        <type>quarter</type>
      </note>
    </measure>

    <!-- Measure 7: little chromatic silliness -->
    <measure number="7">
      <note>
        <pitch><step>E</step><octave>5</octave></pitch>
        <duration>4</duration>
        <type>eighth</type>
      </note>
      <note>
        <pitch><step>E</step><alter>1</alter><octave>5</octave></pitch> <!-- E# / F -->
        <duration>4</duration>
        <type>eighth</type>
      </note>
      <note>
        <pitch><step>F</step><octave>5</octave></pitch>
        <duration>8</duration>
        <type>quarter</type>
      </note>
      <note>
        <pitch><step>D</step><octave>5</octave></pitch>
        <duration>8</duration>
        <type>quarter</type>
      </note>
      <note>
        <pitch><step>C</step><octave>5</octave></pitch>
        <duration>8</duration>
        <type>quarter</type>
      </note>
    </measure>

    <!-- Measure 8: ending flourish -->
    <measure number="8">
      <note>
        <pitch><step>C</step><octave>6</octave></pitch>
        <duration>8</duration>
        <type>quarter</type>
        <notations><articulations><accent/></articulations></notations>
      </note>
      <note>
        <pitch><step>G</step><octave>5</octave></pitch>
        <duration>8</duration>
        <type>quarter</type>
      </note>
      <note>
        <pitch><step>E</step><octave>5</octave></pitch>
        <duration>8</duration>
        <type>quarter</type>
      </note>
      <note>
        <pitch><step>C</step><octave>5</octave></pitch>
        <duration>8</duration>
        <type>quarter</type>
        <notations>
          <tied type="stop"/>
        </notations>
      </note>
    </measure>

  </part>
</score-partwise>
